<?xml version="1.0" encoding="UTF-8" standalone="no"?>
<!DOCTYPE svg PUBLIC "-//W3C//DTD SVG 1.1//EN" "http://www.w3.org/Graphics/SVG/1.1/DTD/svg11.dtd">
<svg viewBox="0 0 4500 3186" version="1.1"
  xmlns="http://www.w3.org/2000/svg"
  xmlns:xlink="http://www.w3.org/1999/xlink" xml:space="preserve"
  xmlns:serif="http://www.serif.com/" style="fill-rule:evenodd;clip-rule:evenodd;stroke-linecap:round;stroke-linejoin:round;stroke-miterlimit:1.5;">
  <g>
    <path d="M332.523,225.351c-0.385,-1.924 -0.385,-3.464 -1.154,-4.618c0,-0.77 0,-1.539 -0.77,-2.309c-0.385,0 -0.769,2.309 -0.769,6.927c-3.463,26.551 -6.927,52.717 -10.39,79.268c0,2.694 0,4.618 0.385,5.772c0.77,1.924 2.309,2.694 4.618,2.694l11.928,0c3.463,-0.385 5.387,-2.309 5.387,-5.772l0,-4.233c0,-10.775 -1.154,-23.473 -3.463,-39.25c-3.463,-22.318 -5.387,-35.016 -5.772,-38.479Zm22.703,-98.509c9.62,3.079 16.931,9.62 22.319,19.625c3.463,6.157 6.156,14.622 8.465,25.397l44.637,198.171c1.539,5.387 2.309,10.004 3.078,13.083c0.77,3.463 1.155,6.926 1.155,10.005c0,5.002 -1.54,9.235 -4.233,13.083c-3.463,4.617 -8.081,8.08 -13.853,10.389c-5.772,2.309 -11.929,3.463 -19.24,3.463c-6.157,0 -12.698,-1.154 -20.009,-3.078c-6.927,-1.924 -12.314,-6.157 -15.777,-12.313c-2.694,-4.233 -5.387,-11.544 -7.696,-21.934c-1.924,-6.542 -5.387,-10.005 -11.159,-10.005l-23.858,0c-6.926,0 -11.159,4.233 -11.928,12.314c-1.155,8.465 -3.079,14.622 -5.772,19.24c-3.079,4.232 -8.081,8.08 -14.623,11.544c-5.002,2.693 -11.544,4.232 -20.009,4.232c-7.696,0 -15.007,-1.539 -21.934,-4.232c-6.541,-2.694 -11.544,-6.157 -14.237,-10.775c-3.079,-5.002 -4.618,-10.389 -4.618,-17.316c0,-5.772 1.155,-12.313 2.694,-20.394l45.406,-196.247c1.924,-8.85 4.618,-16.546 7.696,-22.703c3.463,-6.157 8.85,-11.544 16.161,-16.546c4.233,-2.694 9.236,-5.003 15.392,-6.157c6.157,-1.539 12.314,-2.309 18.471,-2.309c6.926,0 12.313,0.385 15.776,1.154c0.385,0 3.079,0.77 7.696,2.309Z" style="fill-rule:nonzero;"/>
    <path d="M677.041,191.873c-5.387,0 -9.62,1.924 -12.699,5.772c-3.078,4.233 -4.617,8.85 -4.617,14.238c0,6.541 1.539,11.928 4.617,16.546c2.694,5.002 6.927,7.311 12.699,7.311c6.156,0 10.774,-2.309 13.852,-6.926c2.694,-4.233 4.233,-9.62 4.233,-16.162c0,-5.772 -1.539,-10.774 -5.002,-14.622c-3.463,-4.233 -7.696,-6.157 -13.083,-6.157Zm0.769,107.359c-5.772,0 -10.774,2.309 -14.237,7.311c-3.463,4.618 -5.003,10.774 -5.003,17.701c0,6.156 1.155,11.928 4.233,16.546c3.463,6.157 8.851,9.235 15.777,9.235c5.772,0 10.389,-2.693 13.468,-8.081c3.078,-5.387 4.617,-11.928 4.617,-19.624c0,-6.157 -1.539,-11.544 -5.002,-16.162c-3.463,-4.617 -8.081,-6.926 -13.853,-6.926Zm9.235,-175.083c23.473,0 43.867,6.926 60.799,20.779c18.085,14.622 27.32,33.477 27.32,56.18c0,13.083 -3.078,24.627 -9.235,35.402c-4.618,7.696 -10.774,15.007 -18.47,21.164c-3.079,2.693 -4.618,5.002 -4.618,6.541c0,1.924 1.539,3.848 3.848,5.387c12.314,6.927 21.934,15.777 28.86,27.706c6.926,11.544 10.39,24.627 10.39,39.634c0,28.86 -10.005,50.024 -29.63,64.261c-16.931,11.929 -39.249,17.701 -67.34,17.701l-71.572,0c-12.314,0 -21.549,-4.618 -27.705,-13.468c-6.157,-8.85 -8.851,-20.394 -8.851,-33.862l0,-208.945c0,-11.929 5.003,-21.934 15.007,-29.245c8.081,-6.157 16.547,-9.235 25.782,-9.235l65.415,0Z" style="fill-rule:nonzero;"/>
    <path d="M1058.74,121.07c13.083,0 23.857,1.54 32.707,5.003c9.236,3.078 15.392,8.85 18.856,16.546c3.463,7.696 5.002,15.777 5.002,24.242c0,14.623 -4.233,25.012 -13.083,31.939c-2.309,1.539 -5.003,2.693 -7.696,3.848c-3.079,0.769 -5.772,1.154 -8.081,1.154c-5.387,-0.385 -9.235,-0.385 -12.313,-0.385c-5.003,0 -9.236,0.385 -12.314,0.77c-3.078,0.769 -7.311,2.308 -12.698,5.002c-7.696,4.233 -13.468,11.544 -18.086,22.703c-4.233,10.775 -6.157,22.703 -6.157,35.786c0,15.392 2.694,29.245 8.466,41.559c5.772,12.313 13.468,19.239 23.473,21.163c4.232,1.155 8.465,1.54 12.698,1.924c4.233,0.385 12.314,0.385 24.242,0.385c7.696,0 13.853,3.848 18.471,11.159c4.617,7.312 6.926,16.162 6.926,26.551c0,6.157 -0.77,11.929 -2.309,17.316c-1.924,5.772 -4.617,10.775 -8.465,15.392c-5.003,6.157 -11.544,10.775 -20.395,13.853c-8.465,3.078 -18.085,4.618 -28.475,4.618c-1.924,0 -3.848,0 -6.157,-0.385c-1.924,0 -3.848,-0.385 -5.002,-0.385c-36.171,-3.463 -64.646,-21.549 -85.425,-53.487c-18.086,-28.09 -27.321,-61.952 -27.321,-100.817c0,-39.249 9.62,-71.957 29.245,-98.893c22.318,-31.169 53.487,-46.561 93.891,-46.561Z" style="fill-rule:nonzero;"/>
    <path d="M1268.08,158.781c0,-8.466 3.079,-16.162 9.62,-22.704c6.927,-6.926 13.083,-10.004 19.24,-10.004c6.927,0 14.623,-0.385 23.473,-0.385c8.85,-0.385 18.47,-0.77 29.245,-1.155l14.237,0c3.848,0.77 6.542,1.155 8.081,1.54c28.86,4.617 51.948,15.007 69.263,31.938c15.392,14.237 25.782,32.323 31.554,53.872c2.309,7.311 3.848,15.392 4.617,24.627c1.155,9.235 1.54,18.855 1.54,29.629c0,18.086 -1.54,35.402 -4.618,51.563c-3.463,15.777 -8.465,30.399 -15.007,43.098c-10.005,19.239 -22.318,33.477 -37.71,43.097c-15.007,9.62 -31.938,14.622 -50.794,14.622l-67.724,0c-10.774,0 -19.24,-3.078 -25.012,-9.62c-6.926,-7.696 -10.005,-19.24 -10.005,-35.016l0,-215.102Zm87.734,57.719l0,114.67c0,5.772 0.385,10.39 1.155,13.853c0.769,3.463 2.308,5.002 5.002,5.002c1.924,0 4.618,-1.539 8.081,-4.617c8.465,-8.466 14.237,-21.164 17.316,-38.865c1.539,-9.62 2.309,-21.933 2.309,-37.325c0,-16.547 -1.54,-31.939 -5.388,-46.561c-3.848,-14.238 -9.235,-23.857 -16.161,-28.09c-2.694,-1.539 -4.618,-1.924 -6.542,-1.924c-2.309,0 -3.848,1.154 -4.617,3.463c-0.77,2.694 -1.155,6.157 -1.155,10.389l0,10.005Z" style="fill-rule:nonzero;"/>
    <path d="M1632.2,180.714c0,-8.85 0.385,-16.162 1.154,-21.549c1.155,-5.772 3.464,-11.159 8.081,-16.931c4.233,-5.387 9.62,-10.005 16.162,-13.083c6.541,-3.463 13.468,-5.002 20.779,-5.002l77.729,0c10.39,0 18.086,1.154 23.088,3.463c5.002,1.924 9.235,6.541 12.698,13.468c1.924,3.463 3.079,7.311 3.848,11.159c0.77,3.848 1.155,6.926 1.155,9.62c0,3.463 -0.385,6.541 -1.155,9.62c-0.769,3.463 -1.924,6.926 -3.848,10.389c-3.848,7.312 -8.08,11.544 -13.083,13.853c-5.002,1.924 -12.313,3.079 -22.703,3.079c-13.468,0 -23.088,0.384 -28.475,0.769c-5.772,0.77 -8.466,5.772 -8.466,15.777c0,6.926 2.309,11.929 6.542,14.622c3.078,2.309 8.466,3.079 15.392,3.079l14.237,0c10.005,0 18.471,3.078 25.397,8.85c6.927,6.157 10.39,14.237 10.39,25.012c0,11.544 -3.079,20.779 -8.851,27.705c-6.156,6.927 -13.852,10.775 -23.088,11.929c-2.308,0 -4.617,0.385 -6.926,0.385l-5.387,0l-15.777,0c-7.311,1.539 -10.774,7.311 -10.774,18.085c0,7.311 1.924,11.929 5.772,13.853c3.848,1.924 10.774,3.078 21.164,3.078l13.468,0c10.774,0 20.009,3.079 26.551,10.005c6.926,6.542 10.389,16.162 10.389,29.245c0,11.929 -3.463,21.164 -10.774,27.705c-7.311,6.927 -17.316,10.39 -30.399,10.39l-80.038,0c-6.157,0 -11.544,-0.77 -16.546,-2.309c-4.618,-1.539 -9.236,-4.233 -13.853,-8.081c-5.772,-5.002 -9.235,-10.774 -11.159,-17.7c-1.924,-6.927 -2.694,-14.238 -2.694,-22.704l0,-187.781Z" style="fill-rule:nonzero;"/>
    <path d="M1946.25,180.329c0,-10.774 0.769,-18.47 2.308,-23.472c1.155,-5.388 3.464,-9.62 6.157,-13.853c4.618,-6.157 10.39,-10.775 16.931,-13.853c6.542,-3.463 13.468,-5.002 20.779,-5.002l77.73,0c9.62,0 16.931,1.154 21.548,3.848c4.618,2.693 9.62,7.311 14.238,13.852c1.154,2.309 2.693,5.388 3.463,9.236c1.154,3.848 1.539,7.311 1.539,11.159c0,7.311 -1.539,13.852 -5.002,19.624c-4.233,6.927 -8.85,11.544 -13.468,13.468c-4.618,2.309 -12.314,3.079 -22.703,3.079l-21.549,0c-6.926,0 -11.544,0.769 -13.083,2.693c-1.539,1.924 -2.309,6.157 -2.309,13.468c0,11.544 1.539,18.471 4.233,20.01c2.694,1.924 12.314,2.693 29.245,2.693c9.235,0 16.931,2.694 23.857,7.696c8.466,6.542 12.698,15.007 12.698,26.167c0,15.007 -4.232,25.781 -12.313,32.323c-6.157,5.002 -13.468,7.311 -22.318,7.311c-16.547,0 -26.551,0.385 -29.63,1.924c-3.078,1.539 -4.617,6.926 -4.617,16.546l0,19.625c-0.385,5.772 -0.385,10.774 -0.385,15.007l0,5.772c0.385,2.693 0.769,4.617 0.769,6.157c0,13.852 -4.617,25.012 -14.237,33.092c-8.85,7.311 -19.24,11.159 -31.169,11.159c-11.544,0 -21.548,-3.463 -29.244,-10.774c-5.772,-5.002 -9.62,-10.774 -11.16,-16.931c-1.539,-6.542 -2.308,-14.238 -2.308,-23.858l0,-188.166Z" style="fill-rule:nonzero;"/>
    <path d="M2378.45,121.455c11.544,0 21.933,1.924 31.938,6.157c9.62,4.233 18.47,9.62 26.166,16.161c6.157,5.388 11.16,11.544 15.392,18.856c4.233,7.311 6.157,15.007 6.157,22.703c0,4.617 -0.77,8.465 -1.539,11.544c-1.154,3.463 -3.078,7.311 -6.157,11.543c-2.693,4.233 -6.541,7.312 -11.159,9.236c-4.618,1.924 -9.62,3.078 -14.622,3.078c-3.464,0 -6.927,-0.77 -10.775,-1.539c-3.848,-0.77 -6.926,-1.924 -9.62,-3.463c-3.078,-1.54 -8.08,-6.157 -15.392,-13.853c-5.387,-5.387 -10.774,-8.466 -15.776,-8.466c-0.385,0 -1.924,0.385 -4.233,0.77c-8.081,1.924 -13.853,9.62 -17.316,23.088c-3.463,13.468 -5.387,30.014 -5.387,49.639c0,10.774 0.385,19.24 0.769,25.396c0.385,6.157 1.155,14.623 2.309,25.012c1.155,10.775 4.233,18.855 8.081,25.012c4.233,5.772 9.62,8.466 15.777,8.466c2.693,0 6.156,-0.77 9.235,-2.694c8.465,-4.617 12.698,-12.698 12.698,-23.472c0,-5.388 -1.154,-8.466 -3.463,-9.236c-2.309,-0.384 -5.002,-0.769 -7.696,-1.154c-6.542,-1.154 -11.544,-4.233 -15.777,-9.62c-5.002,-6.542 -7.311,-14.238 -7.311,-23.857c0,-8.081 3.079,-15.392 9.235,-21.934c6.157,-6.157 13.468,-9.62 21.549,-9.62l47.33,0c8.081,0 15.392,3.078 22.318,9.235c6.927,6.157 10.775,13.468 11.929,22.319c1.539,8.85 1.924,17.315 1.924,25.781c0,18.47 -2.309,35.786 -7.311,51.563c-4.618,16.161 -11.929,28.86 -21.164,38.095c-9.235,8.85 -20.009,15.777 -31.938,20.009c-11.544,4.233 -25.782,6.542 -41.943,6.542c-42.713,0 -73.112,-16.162 -91.582,-48.869c-14.238,-24.627 -21.164,-59.259 -21.164,-103.896c0,-42.712 9.235,-77.344 27.706,-103.895c21.163,-29.63 51.178,-44.637 90.812,-44.637Z" style="fill-rule:nonzero;"/>
    <path d="M2713.85,323.859l0,49.639c0,8.85 -0.385,15.392 -1.539,20.009c-0.77,4.233 -3.464,8.851 -7.312,13.468c-4.232,4.618 -9.235,8.081 -14.622,10.39c-5.772,2.309 -12.313,3.463 -19.24,3.463c-13.468,0 -24.242,-3.848 -31.938,-11.929c-4.233,-3.848 -7.696,-9.62 -9.235,-16.161c-1.924,-6.542 -2.694,-14.238 -2.694,-23.088l0,-191.245l0,-19.24c1.155,-11.159 5.387,-20.009 13.853,-26.166c3.848,-3.078 8.081,-5.387 13.083,-6.542c5.002,-1.539 10.005,-2.308 15.007,-2.308c9.62,0 18.086,2.308 25.397,6.156c7.311,4.233 12.313,10.775 15.392,19.24c2.309,6.542 3.463,15.392 3.463,26.551l0,40.404c0,4.618 1.539,8.851 4.618,11.929c2.693,3.078 6.926,4.618 12.313,4.618c6.542,0 11.159,-1.924 13.083,-6.157c1.539,-2.694 2.309,-7.696 2.309,-14.238l0,-35.401c0,-12.314 0.385,-20.779 1.539,-25.012c1.539,-8.466 5.772,-15.392 12.314,-20.394c3.848,-3.079 8.08,-5.388 13.083,-6.542c5.002,-1.539 10.005,-2.309 15.007,-2.309c9.235,0 17.701,2.309 25.012,6.542c7.311,4.233 12.313,10.005 15.007,17.701c2.694,7.696 4.233,17.315 4.233,28.09l0,202.788c0,6.542 -0.385,11.544 -1.539,16.162c-1.155,4.233 -3.464,8.466 -7.312,12.698c-3.848,4.618 -8.85,7.696 -15.007,10.005c-6.541,2.694 -13.468,3.848 -20.394,3.848c-13.083,0 -23.473,-3.848 -30.784,-11.159c-4.233,-4.233 -6.926,-9.62 -8.85,-16.162c-1.539,-6.926 -2.309,-15.007 -2.309,-24.242l0,-45.406c0,-10.774 -5.387,-16.162 -16.162,-16.162c-10.389,0 -15.776,5.388 -15.776,16.162Z" style="fill-rule:nonzero;"/>
    <path d="M2997.31,177.251l0,-11.159c0,-8.851 0.769,-15.777 2.309,-20.395c1.539,-5.002 5.002,-9.62 10.774,-14.237c4.233,-3.079 8.85,-5.387 13.468,-6.927c5.002,-1.539 10.389,-1.923 15.777,-1.923c9.235,0 17.316,1.923 24.627,5.771c7.311,4.233 12.313,10.775 15.392,19.24c2.308,6.927 3.463,15.777 3.463,27.321l0,197.401c0,10.39 -0.385,17.701 -1.924,21.549c-1.155,4.233 -3.463,8.081 -7.311,12.314c-3.464,4.232 -8.081,7.311 -13.853,9.62c-5.772,2.308 -12.314,3.463 -19.24,3.463c-13.083,0 -23.473,-3.848 -31.169,-11.544c-4.232,-4.618 -7.696,-10.005 -9.235,-16.546c-1.924,-6.927 -3.078,-14.238 -3.078,-22.319l0,-191.629Z" style="fill-rule:nonzero;"/>
    <path d="M3297.91,170.324c0,-11.159 0.77,-18.855 1.924,-23.087c1.924,-7.312 6.542,-13.468 13.853,-18.856c3.463,-2.693 7.311,-4.617 12.313,-5.771c4.618,-1.54 9.62,-1.924 14.238,-1.924c4.617,0 8.85,0.384 12.313,0.769c3.079,0.77 6.927,1.924 10.775,3.463c8.465,3.848 14.622,11.159 18.47,21.164c2.694,8.081 4.233,17.701 4.233,28.86l0,158.537c0,30.784 -10.005,54.256 -30.014,70.418c-15.392,12.313 -33.093,18.47 -52.333,18.47c-13.468,0 -24.627,-1.924 -33.862,-5.387c-13.853,-5.772 -23.088,-15.007 -26.936,-28.09c-0.77,-2.309 -1.154,-3.848 -1.154,-4.618c-0.385,-1.539 -0.385,-3.463 -0.385,-6.157c0,-4.617 0.769,-8.85 1.924,-12.698c1.154,-3.848 3.848,-8.465 8.081,-13.468c3.463,-3.848 6.541,-6.541 9.619,-7.696c3.079,-1.154 6.927,-1.924 11.929,-1.924l8.466,0c7.696,0 12.698,-0.769 14.237,-2.693c1.54,-1.924 2.309,-7.696 2.309,-16.931l0,-12.699l0,-139.682Z" style="fill-rule:nonzero;"/>
    <path d="M3632.21,319.241l0,62.338c0,10.004 -3.848,19.24 -10.774,27.32c-3.079,3.463 -7.696,6.542 -13.853,8.466c-6.542,2.309 -13.083,3.463 -20.01,3.463c-14.622,0 -25.781,-3.848 -33.092,-11.159c-4.233,-4.233 -7.312,-8.85 -8.851,-14.622c-1.539,-5.772 -2.308,-13.853 -2.308,-25.012l0,-191.63c0,-13.083 0.384,-21.164 1.154,-25.012c1.539,-8.465 5.387,-15.392 11.929,-20.779c3.848,-3.463 8.08,-5.772 13.083,-7.311c5.387,-1.539 10.774,-2.309 16.546,-2.309c8.466,0 15.777,1.539 22.318,3.848c14.623,6.157 21.934,17.701 21.934,34.632l0,59.259c0,3.463 0.385,6.542 0.769,8.85c0,1.155 0,1.54 0.385,1.54c0.77,-0.385 2.309,-3.079 3.848,-8.081l25.012,-68.109c3.848,-10.39 8.85,-18.086 15.392,-23.473c6.542,-5.772 13.083,-8.466 19.625,-8.466c13.468,0 23.088,0.77 27.705,1.924c9.62,2.309 16.162,7.311 19.24,15.392c1.155,3.079 1.539,6.927 1.539,10.39c0,5.387 -1.539,11.929 -4.617,18.855l-32.323,75.42c-0.77,1.924 -1.539,3.463 -2.309,5.003c-1.539,3.463 -1.924,6.156 -1.924,8.85c-0.385,1.154 -0.385,2.694 -0.385,5.002c0,2.694 0,4.233 0.385,5.388c0,1.154 0.77,3.078 1.924,5.772l35.786,86.579c3.079,6.926 5.003,12.314 6.157,15.777c0.77,3.078 1.154,6.541 1.154,9.62c0,3.848 -0.384,7.311 -1.539,10.389c-3.078,7.312 -7.696,12.699 -13.853,16.162c-6.541,3.463 -14.237,5.387 -23.088,5.387c-5.771,0 -11.928,-0.77 -17.7,-1.924c-16.162,-3.848 -26.936,-14.237 -32.323,-30.784l-22.703,-71.187c-0.385,-3.079 -0.77,-5.388 -1.54,-7.696c-0.769,-1.924 -1.539,-3.079 -2.308,-3.079c-0.385,0 -0.77,1.924 -0.77,5.772l0.385,9.235Z" style="fill-rule:nonzero;"/>
    <path d="M312.129,823.368c0,14.237 1.539,23.088 4.233,26.166c1.924,2.694 7.311,4.233 16.161,5.003c8.851,1.154 17.701,1.924 26.551,2.693c8.851,1.539 15.777,6.926 20.395,15.777c1.154,1.539 1.924,4.617 2.308,8.081c0.77,3.463 1.155,6.926 1.155,9.62c0,5.387 -0.385,10.004 -1.155,13.852c-0.384,3.463 -1.539,6.542 -2.693,8.851c-3.848,6.156 -7.696,10.389 -11.544,12.313c-7.696,4.233 -20.394,6.542 -37.71,6.542l-63.107,0c-5.387,0 -10.39,-1.155 -15.392,-3.079c-5.387,-1.539 -10.005,-4.617 -14.622,-8.465c-3.464,-3.079 -6.157,-6.927 -8.466,-11.929c-2.309,-5.387 -3.463,-11.544 -3.463,-18.47l0,-202.019c0,-11.544 1.154,-20.779 3.848,-28.475c2.693,-7.311 8.081,-13.468 15.777,-18.471c5.387,-3.463 13.083,-5.387 23.472,-5.387c3.848,0 8.466,0.385 12.699,1.539c4.617,0.77 8.85,2.309 12.698,4.618c6.157,3.078 11.159,8.466 14.237,16.162c3.079,7.695 4.618,16.161 4.618,25.781l0,139.297Z" style="fill-rule:nonzero;"/>
    <path d="M727.062,805.667c-0.385,-3.848 -0.77,-7.311 -1.154,-10.005c-0.77,-3.078 -1.155,-4.232 -1.54,-4.232c-0.384,0.384 -0.769,0.769 -0.769,0.769c0,1.155 -0.385,2.694 -0.77,4.618l-1.924,12.313l-12.698,77.345c-1.924,11.159 -3.848,19.24 -5.387,23.088c-1.924,4.232 -4.233,8.465 -7.696,12.313c-3.079,3.848 -6.927,6.542 -11.544,8.466c-4.233,1.539 -9.235,2.693 -14.623,2.693c-5.387,0 -10.004,-0.769 -14.237,-2.308c-4.233,-1.54 -7.696,-3.464 -10.774,-5.772c-7.312,-6.542 -11.929,-14.623 -14.238,-23.473l-21.934,-100.817c-0.384,-2.309 -1.154,-5.003 -1.924,-8.466c-1.154,-3.078 -1.923,-4.617 -2.693,-4.617c-0.77,0 -1.154,1.539 -1.154,5.002l0,8.466l-2.694,98.508c0,5.387 -0.77,10.005 -1.924,13.468c-1.539,3.463 -3.848,6.926 -6.926,10.389c-3.464,3.079 -8.466,5.772 -14.623,7.696c-6.157,2.309 -12.698,3.079 -20.009,3.079c-8.851,0 -15.777,-1.924 -20.395,-5.772c-4.617,-3.848 -8.08,-8.466 -9.62,-14.238c-1.923,-5.772 -3.078,-12.698 -3.078,-20.779l13.083,-202.404c0,-11.928 0.77,-20.009 1.924,-25.012c2.694,-8.08 6.927,-15.007 13.853,-20.394c5.002,-4.233 10.774,-7.311 17.701,-8.85c7.311,-1.924 14.622,-2.694 23.088,-2.694c14.622,0 25.396,1.924 32.323,5.387c5.387,2.309 10.004,6.542 14.622,12.314c5.387,6.926 8.465,13.853 10.005,21.164l10.004,55.411c1.155,5.387 1.924,10.389 3.079,15.007c0.769,5.002 1.539,7.311 2.309,7.311c0.769,0 1.539,-2.309 2.693,-6.926c1.155,-4.618 1.539,-8.466 1.924,-11.544l10.775,-58.105c1.154,-6.541 2.693,-11.929 4.617,-15.776c3.078,-6.542 7.696,-11.929 14.238,-16.547c3.848,-2.693 8.85,-4.617 15.392,-5.772c6.156,-1.539 13.083,-1.924 20.394,-1.924c7.696,0 15.007,0.385 21.933,1.539c6.927,1.155 11.929,2.694 15.007,4.618c8.081,5.387 14.238,12.314 17.701,20.779c3.079,6.542 5.003,15.777 6.157,27.706l14.622,192.014l0,8.081c0,2.308 0,5.002 0.385,7.311c0,6.156 -0.77,11.159 -1.924,15.392c-1.154,4.232 -3.463,8.465 -6.926,12.313c-2.309,2.694 -6.157,5.003 -11.159,6.157c-5.003,1.539 -10.775,2.309 -17.316,2.309c-6.542,0 -12.699,-1.155 -18.471,-2.694c-5.772,-1.924 -10.004,-4.233 -13.083,-8.081c-5.387,-6.541 -8.081,-15.776 -8.081,-26.935l-6.541,-88.889Z" style="fill-rule:nonzero;"/>
    <path d="M1054.76,835.681c-1.539,-4.617 -3.078,-9.62 -4.617,-14.622c-0.385,0.385 -0.77,0.77 -1.155,1.539l-0.385,17.316l0,46.561c0,8.081 -0.769,14.622 -1.924,20.009c-1.539,5.003 -4.232,10.39 -8.85,15.392c-3.078,3.848 -7.696,6.927 -13.468,8.851c-5.772,2.308 -11.929,3.078 -18.085,3.078c-5.772,0 -11.929,-0.77 -17.701,-2.694c-6.157,-1.924 -10.775,-4.617 -13.853,-7.696c-4.617,-3.848 -8.081,-8.85 -10.389,-15.776c-2.309,-6.542 -3.464,-16.162 -3.464,-28.091l0,-191.629l0,-8.85c0,-8.466 0.77,-15.392 2.309,-20.779c1.539,-5.388 5.003,-10.005 10.774,-14.623c3.848,-3.078 8.466,-5.387 14.238,-6.926c5.387,-1.539 11.159,-1.924 17.316,-1.924c10.389,0 18.855,1.539 24.627,4.617c10.39,5.003 17.701,14.623 21.934,28.86l19.624,63.877l4.618,14.622c0.385,1.924 0.769,3.463 1.154,4.233c0,0 0.385,0.769 1.155,1.539c0.384,0 0.769,-2.694 1.154,-7.696c0,-5.387 0.385,-10.774 0.385,-16.931l0,-40.789c0,-11.928 0.385,-20.394 1.154,-25.012c1.924,-8.465 5.772,-15.007 11.544,-19.239c3.848,-2.694 8.466,-4.618 13.853,-6.157c5.387,-1.539 10.774,-1.924 16.161,-1.924c11.16,0 20.01,1.924 26.551,6.157c6.542,4.232 11.16,10.389 14.238,18.085c1.924,6.157 3.078,14.622 3.078,25.782l0,199.71c0,9.235 -0.769,16.546 -1.539,21.548c-0.769,4.618 -3.848,10.005 -8.465,15.392c-3.464,3.848 -8.081,6.927 -13.853,9.236c-5.772,1.924 -12.314,3.078 -18.855,3.078c-12.699,0 -23.473,-3.078 -32.708,-9.62c-7.311,-5.387 -12.698,-13.853 -16.546,-25.397l-20.01,-63.107Z" style="fill-rule:nonzero;"/>
    <path d="M1433.5,706.004c-11.929,0 -20.009,7.696 -23.472,23.088c-2.309,8.851 -3.464,25.397 -3.464,49.639c0,23.088 1.155,39.635 3.079,49.639c3.463,20.779 11.544,30.784 23.857,30.784c11.159,0 18.47,-9.62 21.934,-28.86c1.539,-9.62 2.308,-27.705 2.308,-54.256c0,-18.471 -1.154,-33.478 -4.232,-45.022c-3.848,-16.546 -10.39,-25.012 -20.01,-25.012Zm-3.463,-75.42c35.401,0 62.722,10.774 82.347,32.323c22.318,24.242 33.477,60.798 33.477,110.052c0,48.485 -8.85,87.35 -26.936,116.209c-19.624,31.554 -48.099,47.331 -85.04,47.331c-33.862,0 -61.568,-13.853 -82.732,-41.559c-20.779,-27.32 -31.553,-62.722 -31.553,-106.204c0,-47.715 8.081,-84.656 23.473,-111.207c18.47,-31.168 47.715,-46.945 86.964,-46.945Z" style="fill-rule:nonzero;"/>
    <path d="M1795.55,703.696c-5.772,0 -10.39,2.693 -13.468,8.08c-3.463,5.772 -5.002,11.544 -5.002,17.316l0,5.003c0,8.08 1.539,15.007 5.002,20.779c3.463,5.772 8.466,8.85 15.007,8.85c5.772,0 10.774,-3.463 14.238,-10.005c3.848,-6.926 5.772,-14.237 5.772,-22.703c0,-6.926 -1.924,-13.468 -6.157,-18.855c-3.848,-5.772 -8.851,-8.465 -15.392,-8.465Zm8.081,-67.34c20.009,0 37.325,5.002 51.947,14.238c10.39,6.926 20.01,16.546 28.86,28.859c4.233,6.157 8.081,14.623 11.544,26.167c3.079,11.159 5.003,22.703 5.003,34.631c0,8.851 -1.155,17.316 -2.694,25.397c-1.924,8.081 -5.002,15.777 -8.85,23.473c-8.851,16.546 -22.319,28.475 -40.019,36.171c-13.853,5.772 -28.091,8.85 -43.483,8.85c-5.387,0 -9.62,-0.385 -13.083,-1.154c-5.002,-0.77 -7.696,2.309 -7.696,10.389l0,44.637c0,15.392 -5.002,26.936 -14.622,34.247c-8.466,6.542 -20.009,10.005 -34.247,10.005c-12.698,0 -22.318,-5.003 -29.245,-15.007c-6.926,-9.62 -10.004,-20.779 -10.004,-33.478l0,-209.33c0,-12.314 5.387,-21.933 15.776,-29.245c8.851,-5.772 18.086,-8.85 27.321,-8.85l63.492,0Z" style="fill-rule:nonzero;"/>
    <path d="M2251.89,909.178c-0.77,10.389 -6.927,16.931 -18.086,20.009c-5.387,1.924 -13.468,2.694 -24.627,2.694c-8.465,0 -15.392,-1.924 -21.164,-5.387c-5.772,-3.848 -10.389,-8.851 -13.852,-15.392c-3.848,-6.542 -6.927,-15.392 -10.005,-26.551c-3.848,-14.238 -7.696,-28.09 -11.159,-42.328c-2.694,-6.157 -5.003,-10.774 -6.927,-13.853c-3.078,-4.617 -5.772,-6.541 -8.08,-6.157c-0.77,0 -1.155,0.77 -1.155,3.079c0.385,3.078 0.385,5.772 0.385,7.311l-0.385,49.254c0,8.081 -0.769,15.777 -2.309,22.703c-1.924,6.927 -4.617,12.314 -7.696,16.547c-3.463,4.232 -8.465,6.926 -14.622,8.85c-6.157,1.924 -12.313,3.078 -18.855,3.078c-13.468,0 -22.703,-2.693 -28.09,-7.696c-5.003,-4.617 -8.851,-10.389 -11.159,-16.931c-2.309,-6.157 -3.464,-15.776 -3.464,-27.705l0,-191.245c0,-14.237 1.924,-25.397 6.542,-33.477c5.387,-10.39 14.622,-16.547 27.705,-18.471c4.618,-0.769 9.62,-1.154 15.392,-1.539c5.772,0 12.699,-0.385 20.395,-0.385l33.092,0c25.012,0 46.176,6.927 63.877,20.78c17.316,13.852 28.475,32.707 33.862,56.565c0.77,1.924 1.154,4.233 1.154,6.926c0.385,2.309 0.77,5.387 0.77,9.235c0,12.314 -2.694,24.243 -8.466,36.171c-5.387,11.929 -11.928,20.779 -20.009,26.167c-3.078,2.308 -5.002,3.848 -5.002,5.387c0,0.769 1.154,2.693 3.078,5.002c3.463,5.003 9.235,18.086 16.161,39.634c8.851,25.397 13.084,45.407 13.084,60.414c0,3.463 0,5.772 -0.385,7.311Zm-105.05,-203.174c-7.311,0 -12.698,2.694 -15.777,7.312c-3.078,5.002 -4.617,11.159 -4.617,19.24c0,20.394 7.311,30.783 22.318,30.783c5.772,0 10.774,-3.078 14.237,-8.85c3.848,-5.772 5.388,-12.698 5.388,-19.625c0,-8.08 -1.54,-14.237 -4.618,-19.624c-4.233,-6.157 -9.62,-9.236 -16.931,-9.236Z" style="fill-rule:nonzero;"/>
    <path d="M2496.22,630.969c12.313,0 23.472,1.539 33.477,3.848c10.005,2.309 18.086,6.157 23.858,10.774c7.696,6.157 12.698,12.314 15.392,18.47c2.308,5.772 3.848,12.314 3.848,19.24c0,7.696 -2.309,14.623 -6.157,20.779c-3.848,6.157 -10.005,10.005 -17.701,11.544c-3.078,0.385 -4.617,0.77 -5.772,0.77c-3.848,0 -10.389,-2.694 -19.625,-7.311c-4.232,-2.309 -8.08,-3.848 -11.159,-3.848c-1.539,0 -3.463,0.385 -5.387,1.154c-5.772,1.924 -8.85,6.542 -8.85,13.468c0,3.079 0.769,6.157 3.078,9.235c4.233,5.772 15.007,14.238 32.708,25.782c17.701,11.159 30.014,22.318 37.71,33.092c5.387,8.081 9.235,16.932 11.544,26.936c2.309,9.62 3.463,18.471 3.463,26.936c0,25.397 -8.08,46.946 -24.627,64.646c-16.546,17.701 -37.71,27.706 -63.876,30.015c-25.012,0 -46.176,-5.003 -62.722,-14.238c-20.395,-11.159 -30.784,-27.321 -30.784,-48.485c0,-10.389 2.693,-19.239 8.081,-26.935c5.387,-7.696 12.698,-11.929 22.318,-12.699c10.774,0 20.779,3.463 29.245,10.39c8.85,6.926 15.007,10.005 19.239,9.62c5.003,-1.155 8.466,-2.694 10.775,-5.387c1.924,-2.694 3.078,-5.388 3.078,-8.851c0,-1.924 -0.385,-3.463 -1.154,-4.617c-3.079,-6.157 -9.62,-13.084 -19.24,-20.01c-13.468,-10.005 -26.551,-19.625 -39.634,-29.629c-9.62,-10.775 -16.931,-21.934 -21.934,-33.478c-5.387,-11.544 -7.696,-24.242 -7.696,-38.48c0,-22.703 8.851,-41.943 26.551,-58.104c17.701,-16.546 38.48,-24.627 61.953,-24.627Z" style="fill-rule:nonzero;"/>
    <path d="M2876.16,879.933c0,13.083 -1.155,22.703 -3.079,28.475c-1.924,5.772 -6.541,11.159 -13.468,15.777c-4.233,2.694 -8.465,4.618 -13.083,6.157c-4.233,1.154 -9.235,1.924 -14.622,1.924c-5.003,0 -9.62,-0.77 -13.853,-1.924c-3.848,-1.155 -7.311,-2.694 -9.62,-4.233c-5.387,-3.463 -9.62,-7.696 -12.698,-12.698c-4.618,-7.696 -7.311,-18.086 -7.311,-30.399l0,-155.844l0,-5.002c0,-4.233 -2.309,-6.926 -6.542,-7.696c-4.618,-0.77 -10.005,-1.539 -16.161,-2.309c-7.312,-2.309 -14.238,-7.311 -20.01,-15.007c-4.618,-6.926 -6.926,-14.237 -6.926,-21.933c0,-7.696 2.693,-16.162 7.696,-24.627c2.693,-4.233 7.311,-7.696 13.468,-10.39c5.772,-2.694 11.543,-4.233 16.931,-4.233l103.895,0c7.311,0 13.468,0.77 18.47,1.924c5.003,1.155 10.005,3.848 14.623,8.081c8.081,6.926 11.929,16.546 11.929,28.475c0,7.696 -1.924,15.007 -5.388,21.549c-6.156,11.159 -17.7,16.931 -34.631,16.931c-3.079,0 -5.388,1.154 -7.312,3.463c-1.539,2.309 -2.308,4.618 -2.308,7.696l0,155.843Z" style="fill-rule:nonzero;"/>
    <path d="M3075.37,689.458c0,-10.774 0.769,-19.24 2.308,-25.397c1.54,-6.541 5.388,-12.698 11.544,-19.239c2.694,-3.079 6.542,-5.388 11.544,-6.927c4.618,-1.539 10.005,-2.309 16.162,-2.309c11.159,0 20.009,2.309 26.551,6.927c6.541,4.617 11.159,10.774 14.237,18.085c2.694,7.696 3.848,16.547 3.848,26.551l0,134.68c0,10.389 1.54,18.47 3.848,23.857c2.309,5.772 7.696,8.466 15.392,8.466c6.542,0 10.775,-2.309 12.314,-6.542c1.924,-4.233 3.078,-10.774 3.078,-19.625l0,-8.85l0,-130.831l0,-13.083c0,-8.466 0.77,-15.008 3.079,-19.625c1.924,-4.618 5.002,-8.466 8.85,-11.929c3.848,-3.463 8.081,-5.772 12.698,-7.311c5.003,-1.539 10.005,-2.309 15.392,-2.309c5.003,0 9.235,0.385 13.468,1.155c3.848,0.769 7.696,1.924 11.544,3.848c7.696,3.463 12.698,9.235 15.777,17.316c3.078,8.465 4.617,18.085 4.617,29.244l0,153.919c0,18.856 -3.463,34.632 -10.004,48.1c-6.542,13.468 -17.316,24.627 -32.323,33.478c-8.081,4.617 -17.701,8.85 -28.86,11.544c-10.775,3.078 -22.319,4.232 -33.863,4.232c-11.159,0 -21.933,-1.154 -32.707,-4.232c-11.16,-2.694 -21.164,-7.312 -30.399,-13.468c-11.929,-7.312 -21.164,-17.316 -28.091,-29.63c-6.926,-12.698 -10.004,-25.397 -10.004,-38.48l0,-161.615Z" style="fill-rule:nonzero;"/>
    <path d="M3568.91,669.064c1.154,-5.387 2.308,-10.005 4.232,-14.238c1.54,-4.232 3.848,-7.696 6.542,-10.774c2.694,-3.463 6.926,-5.772 12.698,-7.311c5.772,-1.539 12.314,-1.924 18.855,-1.924c7.312,0 13.853,0.769 19.625,2.309c6.157,1.924 10.39,3.848 12.698,6.541c2.309,2.694 4.233,5.387 5.003,8.466c1.154,3.078 1.539,6.541 1.539,10.004c0,5.388 0,10.005 -0.77,13.853c-1.154,3.848 -1.924,6.542 -2.308,8.466l-43.483,189.705c-4.232,18.471 -7.311,30.014 -9.235,34.632c-4.617,9.235 -13.083,16.162 -25.396,20.394c-5.003,1.924 -12.699,3.079 -23.088,3.079c-8.081,0 -15.392,-0.77 -22.319,-2.694c-6.541,-1.539 -12.313,-4.233 -17.316,-8.465c-6.156,-4.618 -10.774,-11.16 -13.467,-18.856c-0.77,-1.923 -2.694,-9.619 -6.157,-23.857l-50.024,-207.791c-0.385,-1.154 -0.77,-3.463 -0.77,-6.542c0,-8.85 3.848,-16.546 11.544,-22.703c2.694,-2.308 6.542,-3.848 11.929,-5.002c5.387,-1.154 11.159,-1.539 16.931,-1.539c6.927,0 13.083,0.385 18.471,1.924c5.002,1.154 9.235,3.078 12.313,6.157c3.463,3.078 6.157,7.311 8.466,12.313c2.308,5.002 3.848,10.774 5.002,16.931l21.164,111.592l1.924,11.544c0,1.539 0.385,3.463 1.154,5.387c0.77,0 1.54,-1.924 2.309,-6.157c0.77,-4.233 1.154,-6.542 1.154,-7.311l20.78,-118.133Z" style="fill-rule:nonzero;"/>
    <path d="M279.806,1443.71l-10.005,0c-6.926,0 -12.698,-1.154 -17.316,-2.693c-4.617,-1.924 -9.62,-6.542 -15.007,-13.084c-3.078,-3.848 -4.617,-10.004 -4.617,-18.855c0,-5.387 0.384,-9.62 1.154,-13.852c0.77,-3.848 1.924,-7.696 3.078,-11.544l54.257,-142.376c2.693,-5.387 3.848,-9.62 3.848,-11.928c0,-2.694 -1.924,-3.848 -5.772,-3.848l-18.086,0c-8.85,0 -15.392,-0.385 -20.009,-1.924c-8.85,-2.694 -15.392,-8.081 -19.625,-16.162c-1.539,-2.693 -2.693,-5.772 -3.078,-9.62c-0.77,-3.463 -1.155,-6.926 -1.155,-10.389c0,-3.464 0.385,-7.696 1.155,-11.544c1.154,-4.233 2.309,-7.311 3.463,-9.235c3.078,-5.388 6.157,-8.851 10.005,-11.16c7.696,-4.232 19.624,-6.541 35.401,-6.541l81.577,0c6.542,0 10.775,0 13.083,0.385c1.924,0.384 4.618,1.539 8.081,2.693c3.463,1.539 7.311,4.618 11.544,10.005c3.848,5.002 6.542,10.774 7.696,16.546c0.385,4.233 0.77,6.927 0.77,8.081c0,6.157 -1.924,13.468 -5.772,23.088l-54.257,138.142c-2.693,6.927 -4.233,11.16 -4.233,13.468c0,1.924 2.309,3.079 6.927,3.464l26.166,0c8.466,0 14.622,0.769 18.855,2.693c6.157,3.079 11.159,8.466 15.777,16.162c2.694,4.617 4.233,10.774 4.233,18.47c0,12.698 -3.079,21.933 -8.851,28.475c-3.463,4.233 -8.08,7.311 -13.468,9.62c-5.772,2.309 -14.237,3.463 -25.781,3.463l-80.038,0Z" style="fill-rule:nonzero;"/>
    <path d="M792.335,1182.05c1.924,-13.083 5.772,-23.087 12.314,-29.244c2.309,-2.309 6.157,-4.233 11.544,-5.772c5.772,-1.155 11.159,-1.924 17.316,-1.924c7.696,0 14.622,0.769 20.779,2.309c5.772,1.539 10.389,3.848 13.083,7.311c3.078,3.078 5.002,6.541 6.157,10.005c1.154,3.848 1.924,7.696 1.924,11.928c0,3.463 -0.77,9.235 -2.309,17.316l-40.019,204.328c-2.309,10.39 -4.618,18.085 -6.927,23.473c-3.078,6.926 -8.08,13.083 -15.007,18.085c-5.387,4.233 -13.852,6.157 -25.396,6.157c-5.772,0 -11.544,-0.385 -16.547,-1.924c-5.002,-1.154 -10.004,-3.463 -14.237,-6.542c-5.772,-4.232 -10.39,-10.389 -13.083,-19.24c-1.155,-2.693 -1.924,-7.695 -3.079,-14.622l-17.7,-101.202c-0.77,-4.233 -1.155,-7.696 -1.54,-10.389c-0.769,-5.003 -1.539,-7.696 -2.308,-7.696c-0.77,2.309 -1.155,4.233 -1.54,5.772l-1.539,10.389l-17.316,103.511c-1.539,9.235 -3.078,15.007 -4.233,18.47c-2.308,5.772 -6.156,11.159 -11.543,15.392c-3.079,2.309 -6.542,4.233 -11.16,5.772c-4.617,1.539 -10.389,2.309 -16.931,2.309c-4.617,0 -9.62,-0.385 -14.622,-1.924c-5.002,-1.154 -10.39,-3.463 -15.392,-6.542c-5.002,-3.078 -9.235,-8.85 -12.698,-18.085c-1.924,-5.772 -4.233,-15.007 -6.927,-27.321l-41.943,-208.945c-0.384,-3.079 -0.769,-5.387 -0.769,-7.311c0,-10.775 5.002,-19.24 14.622,-25.012c3.078,-1.539 6.157,-2.694 10.005,-3.463c3.848,-0.77 8.85,-1.155 14.237,-1.155c6.157,0 11.929,0.77 17.701,1.924c5.387,1.539 9.62,3.848 12.698,6.542c3.079,3.078 5.388,6.541 6.927,10.389c1.154,3.848 2.309,8.466 3.463,14.623l14.237,92.351l1.155,8.466c0,1.154 0.385,2.309 1.154,3.848l0,0.385c0.77,0 1.539,-1.924 1.924,-5.772c0.77,-3.848 1.155,-5.772 1.155,-6.542l20.009,-93.506c3.079,-13.468 7.696,-23.088 14.622,-28.475c4.233,-3.463 11.16,-5.387 21.164,-5.387c6.542,0 12.314,0.769 18.086,2.693c5.772,1.54 10.005,4.233 13.083,7.696c3.078,3.848 5.387,9.62 8.081,17.701c1.154,5.387 2.693,11.159 3.848,17.701l13.852,74.651l1.924,9.62c0.385,3.078 1.155,4.617 1.54,4.617c0.384,0 0.769,-1.539 1.154,-3.848c0.385,-2.309 0.77,-5.002 1.154,-7.696l13.853,-86.195Z" style="fill-rule:nonzero;"/>
    <path d="M1176.96,1306.34l35.786,84.656c3.079,7.311 5.387,12.698 6.157,15.777c1.154,3.463 1.539,6.926 1.539,10.389c0,3.078 0,5.772 -0.769,7.696c-0.385,1.924 -1.924,4.233 -3.464,6.542c-3.848,5.002 -9.235,8.465 -15.776,11.159c-6.542,2.309 -13.468,3.463 -20.395,3.463c-10.774,0 -19.624,-1.924 -26.551,-5.772c-4.232,-2.309 -7.696,-6.542 -10.774,-12.698c-3.078,-6.157 -6.157,-15.777 -9.62,-28.475c-1.154,-4.233 -2.694,-10.005 -4.618,-17.316c-1.539,-7.696 -2.693,-13.468 -3.463,-18.086c-0.769,-4.617 -1.539,-8.081 -2.309,-10.389c0,-0.385 0,-0.77 -0.384,-1.54c-0.385,0 -1.155,3.848 -2.694,11.16c-0.385,3.848 -1.539,9.235 -3.463,16.931c-1.924,7.311 -4.233,16.161 -7.311,26.166c-4.233,12.698 -7.311,20.394 -8.851,23.473c-2.693,4.232 -6.541,7.696 -11.544,10.389c-3.078,1.539 -8.465,3.079 -15.007,4.233c-6.926,1.539 -11.928,1.924 -15.392,1.924c-5.002,0 -9.62,-0.385 -14.237,-1.924c-4.233,-1.154 -8.081,-3.078 -11.544,-6.157c-5.002,-4.233 -7.696,-10.774 -7.696,-19.625c0,-9.619 3.078,-20.394 9.62,-33.092l34.632,-69.649c1.539,-3.463 3.463,-6.926 5.002,-10.389c1.539,-3.848 2.309,-7.696 2.309,-11.929c0,-3.078 -0.77,-6.541 -1.924,-9.62c-1.539,-3.078 -3.078,-6.157 -4.233,-9.62l-34.247,-82.347c-0.77,-1.539 -1.539,-3.463 -2.309,-6.156c-0.769,-2.309 -1.154,-5.003 -1.154,-8.081c0,-3.463 0.77,-6.926 1.924,-10.39c1.539,-3.463 3.848,-6.926 7.696,-10.389c3.848,-3.463 8.465,-6.157 13.853,-7.696c5.772,-1.539 11.544,-1.924 18.085,-1.924c8.081,0 15.392,0.769 21.934,3.078c6.156,1.924 12.313,10.39 18.47,25.397c3.463,8.85 6.926,21.933 11.159,38.864c1.924,10.005 3.463,15.008 4.233,15.008c0.385,0 0.769,-1.155 1.154,-3.079c0.385,-1.924 0.77,-4.617 1.155,-7.311c2.308,-13.468 5.387,-25.397 8.85,-35.786c3.463,-10.005 6.542,-17.316 9.62,-21.549c5.002,-6.926 11.929,-11.159 21.549,-13.468c0.769,0 3.078,-0.385 6.541,-0.769c3.463,-0.385 6.157,-0.385 8.466,-0.385c7.311,0 13.083,0.769 17.316,2.693c6.541,2.694 10.774,7.312 12.313,13.468c0.77,2.694 1.155,3.848 1.155,4.618c0.384,1.539 0.384,3.463 0.384,6.157c0,4.232 -0.769,8.85 -2.308,14.622c-1.54,5.387 -4.233,12.314 -7.696,20.394l-25.397,54.642c-3.848,8.08 -6.157,13.468 -7.311,16.931c-1.155,3.463 -1.924,6.157 -1.924,8.081c0,2.308 -0.385,3.848 -0.385,4.617c0,1.155 0.385,2.694 0.77,4.618c0.384,1.924 1.539,4.617 3.078,8.465Z" style="fill-rule:nonzero;"/>
    <path d="M1486.41,1219.37c-12.698,0 -20.394,11.929 -23.088,36.171c-0.77,8.465 -1.154,21.549 -1.154,39.249c0,21.549 0.769,38.095 3.078,49.639c3.848,20.779 10.774,31.169 21.164,31.169c10.774,0 17.701,-9.62 21.164,-29.245c1.924,-10.774 2.693,-28.86 2.693,-54.256c0,-19.625 -1.154,-35.017 -3.848,-46.176c-3.848,-16.931 -10.389,-25.782 -20.009,-26.551Zm-2.694,-76.19c35.402,0 62.722,11.159 82.347,32.708c22.318,24.627 33.478,61.567 33.478,110.437c0,28.09 -2.694,52.332 -7.696,72.342c-4.233,15.392 -9.236,28.09 -15.392,38.864c-4.233,6.542 -8.466,13.084 -12.699,19.625c-1.154,1.539 -1.539,2.694 -1.539,3.848c0,1.154 0.77,2.309 1.924,3.463c1.539,1.155 2.309,1.924 3.079,2.694c3.848,3.463 6.541,6.157 7.695,8.081c3.079,4.232 4.618,9.235 4.618,15.007c0,9.235 -3.848,16.931 -11.929,22.703c-7.696,6.157 -16.546,9.235 -26.166,9.235c-7.696,0 -13.853,-1.924 -18.855,-5.387c-1.924,-1.155 -5.387,-5.003 -11.159,-11.159c-9.62,-10.005 -19.24,-15.007 -28.475,-15.007c-33.478,0 -60.029,-13.853 -80.038,-41.559c-19.625,-27.705 -29.63,-63.107 -29.63,-106.204c0,-47.715 8.081,-85.04 23.473,-111.976c18.855,-31.554 47.715,-47.715 86.964,-47.715Z" style="fill-rule:nonzero;"/>
    <path d="M1732.22,1443.33l105.435,-275.515l39.249,0l112.746,275.515l-41.174,0l-32.323,-83.501l-115.054,0l-30.399,83.501l-38.48,0Zm79.268,-113.13l93.506,0l-28.86,-76.19c-8.85,-23.088 -15.391,-42.328 -19.624,-57.335c-3.463,17.7 -8.466,35.401 -14.623,52.717l-30.399,80.808Zm-11.544,-183.549l0,-27.705l117.364,0l0,27.705l-117.364,0Z" style="fill-rule:nonzero;"/>
    <path d="M2331.88,1346.74l36.556,9.235c-7.696,30.014 -21.548,52.718 -41.558,68.494c-19.625,15.777 -43.867,23.473 -72.727,23.473c-29.629,0 -53.871,-5.772 -72.342,-18.086c-18.47,-11.928 -32.708,-29.629 -42.328,-52.332c-10.004,-23.088 -14.622,-47.715 -14.622,-73.881c0,-28.86 5.387,-53.872 16.546,-75.036c10.775,-21.549 26.551,-37.71 46.561,-48.869c20.394,-11.159 42.713,-16.547 66.955,-16.547c27.321,0 50.793,6.927 69.264,21.164c18.855,13.853 31.938,33.478 39.249,58.874l-35.786,8.466c-6.157,-20.01 -15.777,-34.632 -27.706,-43.482c-12.313,-9.235 -27.32,-13.853 -45.791,-13.853c-21.164,0 -38.864,5.002 -53.102,15.392c-14.237,10.005 -24.242,23.473 -30.014,40.789c-5.772,16.931 -8.85,34.631 -8.85,52.717c0,23.473 3.463,43.867 10.389,61.568c6.926,17.315 17.316,30.399 31.938,38.864c14.238,8.851 30.015,13.083 46.561,13.083c20.394,0 37.71,-5.772 51.948,-17.7c14.237,-11.544 23.857,-29.245 28.859,-52.333Zm-77.729,-215.487l20.779,-31.938l38.48,0l-42.328,52.717l-36.171,0l-40.788,-52.717l38.864,0l21.164,31.938Z" style="fill-rule:nonzero;"/>
    <path d="M2527.94,1443.33l0,-275.515l36.556,0l0,136.603l136.603,-136.603l49.639,0l-115.439,111.591l120.441,163.924l-48.099,0l-98.124,-139.297l-45.021,43.867l0,95.43l-36.556,0Zm84.271,60.029l0,-32.708l39.634,0l0,21.934c0,13.852 -2.309,25.011 -7.311,33.862c-4.618,8.85 -12.699,15.776 -24.243,20.394l-10.389,-15.777c11.544,-5.002 18.47,-14.237 20.394,-27.705l-18.085,0Z" style="fill-rule:nonzero;"/>
    <path d="M2880.56,1443.33l0,-33.862l141.221,-176.237c10.005,-12.699 19.24,-23.473 28.475,-32.708l-153.534,0l0,-32.708l197.016,0l0,32.708l-154.689,190.86l-16.546,19.624l175.853,0l0,32.323l-217.796,0Zm111.592,-312.071l20.779,-31.938l38.095,0l-41.943,52.717l-36.171,0l-40.789,-52.717l38.865,0l21.164,31.938Z" style="fill-rule:nonzero;"/>
    <path d="M3241.58,1354.82l34.247,-3.079c1.924,13.853 5.387,25.012 11.544,33.863c5.772,8.85 15.007,16.161 27.705,21.548c12.314,5.388 26.551,8.081 42.328,8.081c13.853,0 26.166,-1.924 36.556,-6.157c10.774,-4.232 18.855,-9.62 23.857,-16.931c5.387,-7.311 7.696,-15.007 7.696,-23.472c0,-8.851 -2.309,-16.162 -7.311,-22.704c-5.002,-6.541 -13.468,-11.928 -25.012,-16.161c-7.311,-3.078 -23.473,-7.696 -48.869,-13.468c-25.397,-6.157 -43.098,-11.929 -53.102,-17.316c-13.084,-6.926 -23.088,-15.392 -29.63,-25.781c-6.157,-10.005 -9.62,-21.549 -9.62,-34.247c0,-13.853 4.233,-26.936 11.929,-38.865c8.081,-11.929 19.24,-21.164 34.632,-27.705c15.007,-6.157 31.938,-9.236 50.408,-9.236c20.395,0 38.48,3.464 54.257,10.005c15.392,6.542 27.321,16.162 35.786,28.86c8.466,12.698 13.083,27.321 13.468,43.482l-35.017,2.694c-1.539,-17.701 -8.08,-30.784 -18.855,-39.634c-10.774,-8.851 -26.936,-13.468 -48.099,-13.468c-21.934,0 -38.095,4.232 -48.1,12.313c-10.005,8.081 -15.007,17.701 -15.007,29.245c0,10.005 3.463,18.085 10.389,24.242c7.311,6.542 25.397,13.083 55.026,19.625c29.63,6.926 50.024,12.698 61.183,17.7c15.777,7.312 27.706,16.932 35.402,28.091c7.696,11.544 11.544,24.242 11.544,39.249c0,14.622 -4.233,28.475 -12.699,41.558c-8.465,12.699 -20.394,22.703 -36.171,30.015c-15.776,7.311 -33.477,10.774 -53.102,10.774c-25.012,0 -45.791,-3.463 -62.722,-10.774c-16.931,-7.312 -30.014,-18.086 -39.634,-32.708c-9.62,-14.623 -14.623,-31.169 -15.007,-49.639Zm105.819,-223.568l20.779,-31.938l38.095,0l-42.328,52.717l-35.786,0l-40.788,-52.717l38.864,0l21.164,31.938Z" style="fill-rule:nonzero;"/>
    <path d="M3625.36,1443.33l0,-275.515l36.556,0l0,243.192l135.834,0l0,32.323l-172.39,0Zm69.264,60.029l0,-32.708l39.25,0l0,21.934c0,13.852 -2.309,25.011 -6.927,33.862c-4.617,8.85 -12.698,15.776 -24.627,20.394l-10.005,-15.777c11.544,-5.002 18.471,-14.237 20.395,-27.705l-18.086,0Z" style="fill-rule:nonzero;"/>
    <path d="M236.324,1955.53l0,-275.515l37.325,0l144.684,216.256l0,-216.256l35.017,0l0,275.515l-37.326,0l-144.684,-216.641l0,216.641l-35.016,0Zm86.964,60.029l0,-32.708l39.25,0l0,21.933c0,13.853 -2.309,25.012 -6.927,33.863c-4.617,8.85 -12.698,15.776 -24.627,20.394l-10.005,-15.777c11.544,-5.002 18.471,-14.237 20.395,-27.705l-18.086,0Z" style="fill-rule:nonzero;"/>
    <path d="M619.789,1821.24c0,-45.407 12.314,-81.193 36.941,-107.359c24.627,-25.782 56.18,-38.865 95.045,-38.865c25.397,0 48.484,6.157 68.879,18.471c20.394,11.928 35.786,28.859 46.56,50.793c10.775,21.549 16.162,46.176 16.162,73.881c0,28.09 -5.772,53.102 -16.931,75.036c-11.159,21.933 -27.321,38.864 -48.1,50.024c-20.394,11.159 -42.713,16.931 -66.57,16.931c-26.166,0 -49.254,-6.157 -69.649,-18.855c-20.394,-12.314 -35.786,-29.63 -46.56,-51.179c-10.39,-21.548 -15.777,-44.636 -15.777,-68.878Zm37.71,0.769c0,33.093 8.851,59.259 26.936,78.499c17.701,18.855 40.019,28.475 66.955,28.475c27.321,0 50.024,-9.62 67.725,-28.86c17.7,-19.24 26.551,-46.56 26.551,-81.962c0,-22.703 -3.848,-42.328 -11.159,-58.874c-7.696,-16.546 -18.856,-29.629 -33.478,-38.865c-14.622,-9.235 -30.784,-13.852 -48.869,-13.852c-25.782,0 -48.1,8.85 -66.57,26.551c-18.855,17.701 -28.091,47.33 -28.091,88.888Zm38.48,-167.002l0,-27.706l117.364,0l0,27.706l-117.364,0Z" style="fill-rule:nonzero;"/>
    <path d="M1052.76,1955.53l0,-275.515l36.556,0l0,275.515l-36.556,0Zm-41.173,-293.601l0,-27.705l117.363,0l0,27.705l-117.363,0Z" style="fill-rule:nonzero;"/>
    <path d="M1270.64,1955.53l0,-275.515l199.325,0l0,32.708l-162.77,0l0,84.27l152.381,0l0,32.323l-152.381,0l0,93.891l168.927,0l0,32.323l-205.482,0Zm47.33,-298.603l0,-27.706l117.363,0l0,27.706l-117.363,0Z" style="fill-rule:nonzero;"/>
  </g>
  <path id="a" d="M332.54,225.454c-0.229,-1.87 -0.582,-3.506 -1.047,-4.906c0,-0.47 -0.235,-1.17 -0.706,-2.106c-0.7,0 -1.047,2.336 -1.047,7.012c-3.506,26.402 -6.894,52.803 -10.165,79.199c-0.235,2.571 -0.118,4.441 0.347,5.612c0.69,1.865 2.181,2.8 4.484,2.8l12.073,0c3.447,-0.465 5.174,-2.335 5.174,-5.606l0,-4.553c0,-10.518 -1.165,-23.484 -3.506,-38.902c-3.501,-22.431 -5.371,-35.279 -5.607,-38.55Zm22.784,-98.471c9.342,3.041 16.701,9.471 22.077,19.294c3.501,6.317 6.424,14.852 8.76,25.61l44.508,198.241c1.4,5.382 2.453,9.769 3.153,13.163c0.701,3.388 1.053,6.606 1.053,9.647c0,5.146 -1.4,9.593 -4.206,13.334c-3.506,4.676 -8.118,8.129 -13.842,10.352c-5.724,2.218 -12.094,3.33 -19.101,3.33c-6.306,0 -13.024,-1 -20.148,-2.999c-7.13,-2.004 -12.442,-6.06 -15.948,-12.185c-2.571,-4.473 -5.141,-11.768 -7.712,-21.885c-1.635,-6.83 -5.254,-10.24 -10.86,-10.24l-23.836,0c-7.242,0 -11.33,4.174 -12.265,12.522c-0.93,8.348 -2.86,14.67 -5.783,18.962c-2.918,4.291 -7.765,8.177 -14.542,11.651c-4.906,2.784 -11.565,4.174 -19.978,4.174c-7.706,0 -14.948,-1.342 -21.725,-4.025c-6.776,-2.683 -11.624,-6.36 -14.542,-11.025c-2.923,-4.666 -4.382,-10.384 -4.382,-17.15c0,-5.601 0.935,-12.373 2.8,-20.309l45.209,-196.365c1.87,-8.872 4.5,-16.397 7.888,-22.58c3.388,-6.183 8.701,-11.726 15.942,-16.626c4.206,-2.801 9.348,-4.901 15.424,-6.302c6.072,-1.4 12.266,-2.1 18.572,-2.1c7.012,0 12.266,0.347 15.772,1.053c0.465,0 3.035,0.818 7.712,2.458Z" style="fill-rule:nonzero;"/>
  <path id="d" d="M1273.75,158.868c0,-8.647 3.329,-16.295 9.989,-22.954c6.659,-6.659 13.024,-9.989 19.101,-9.989c6.776,0 14.6,-0.117 23.478,-0.353c8.882,-0.229 18.577,-0.582 29.089,-1.047l14.371,0c3.736,0.7 6.424,1.165 8.06,1.406c28.737,4.681 51.867,15.338 69.386,31.964c15.189,14.286 25.702,32.318 31.543,54.097c2.1,7.263 3.624,15.461 4.554,24.595c0.935,9.133 1.405,18.967 1.405,29.506c0,18.267 -1.577,35.423 -4.73,51.467c-3.158,16.044 -8.123,30.501 -14.895,43.381c-9.812,18.967 -22.313,33.311 -37.501,43.033c-15.184,9.721 -32.126,14.579 -50.815,14.579l-67.986,0c-10.748,0 -19.043,-3.27 -24.884,-9.812c-6.777,-7.477 -10.165,-19.042 -10.165,-34.696l0,-215.177Zm87.964,57.576l0,114.766c0,5.862 0.352,10.496 1.052,13.9c0.701,3.405 2.336,5.104 4.907,5.104c2.105,0 4.788,-1.64 8.059,-4.927c8.647,-8.215 14.489,-21.121 17.524,-38.72c1.636,-9.626 2.453,-22.062 2.453,-37.321c0,-16.423 -1.849,-31.911 -5.547,-46.464c-3.704,-14.547 -9.139,-23.932 -16.306,-28.16c-2.544,-1.405 -4.628,-2.111 -6.242,-2.111c-2.314,0 -3.875,1.229 -4.687,3.693c-0.807,2.464 -1.213,5.927 -1.213,10.384l0,9.856Z" style="fill:#f00909;fill-rule:nonzero;"/>
  <path id="e" d="M1630.38,180.593c0,-8.877 0.465,-16.06 1.4,-21.548c0.936,-5.495 3.56,-11.042 7.883,-16.648c4.324,-5.607 9.754,-10.048 16.296,-13.319c6.541,-3.27 13.435,-4.906 20.677,-4.906l77.804,0c10.513,0 18.219,1.112 23.131,3.33c4.906,2.218 9.107,6.718 12.613,13.489c1.87,3.741 3.153,7.477 3.853,11.218c0.705,3.736 1.053,6.889 1.053,9.46c0,3.506 -0.348,6.835 -1.053,9.988c-0.7,3.154 -1.983,6.601 -3.853,10.342c-3.736,7.006 -8.06,11.565 -12.966,13.665c-4.906,2.101 -12.501,3.154 -22.778,3.154c-13.553,0 -23.072,0.294 -28.566,0.876c-5.488,0.583 -8.235,5.783 -8.235,15.595c0,7.012 2.105,11.918 6.311,14.719c3.271,2.105 8.407,3.153 15.419,3.153l14.366,0c10.047,0 18.518,2.966 25.412,8.898c6.889,5.927 10.337,14.243 10.337,24.937c0,11.395 -2.977,20.582 -8.936,27.556c-5.959,6.975 -13.613,10.93 -22.955,11.854c-2.335,0.235 -4.676,0.353 -7.011,0.353l-5.254,0c-9.112,0 -14.371,0.117 -15.771,0.347c-7.242,1.171 -10.866,7.13 -10.866,17.877c0,7.477 1.93,12.148 5.783,14.019c3.853,1.865 10.924,2.8 21.201,2.8l13.319,0c10.982,0 19.918,3.33 26.807,9.989c6.895,6.659 10.342,16.413 10.342,29.266c0,11.913 -3.624,21.26 -10.866,28.031c-7.241,6.777 -17.406,10.166 -30.489,10.166l-79.905,0c-6.306,0 -11.795,-0.759 -16.471,-2.277c-4.671,-1.518 -9.342,-4.265 -14.019,-8.236c-5.606,-4.906 -9.342,-10.748 -11.212,-17.524c-1.871,-6.777 -2.801,-14.366 -2.801,-22.778l0,-187.846Z" style="fill:#f00909;fill-rule:nonzero;"/>
  <path id="b" d="M671.948,191.811c-5.371,0 -9.577,1.983 -12.612,5.954c-3.041,3.976 -4.559,8.647 -4.559,14.018c0,6.542 1.459,12.153 4.382,16.824c2.918,4.672 7.183,7.007 12.789,7.007c6.077,0 10.63,-2.218 13.671,-6.659c3.036,-4.436 4.554,-9.812 4.554,-16.119c0,-5.841 -1.694,-10.806 -5.083,-14.895c-3.388,-4.088 -7.765,-6.13 -13.142,-6.13Zm0.7,107.236c-5.836,0 -10.512,2.453 -14.013,7.359c-3.506,4.906 -5.259,10.865 -5.259,17.877c0,6.307 1.401,11.795 4.207,16.472c3.735,6.071 8.994,9.107 15.771,9.107c6.071,0 10.63,-2.683 13.666,-8.06c3.035,-5.371 4.553,-11.912 4.553,-19.624c0,-6.072 -1.689,-11.448 -5.077,-16.119c-3.389,-4.677 -8.006,-7.012 -13.848,-7.012Zm9.465,-174.875c23.366,0 43.573,6.895 60.627,20.678c18.225,14.718 27.337,33.525 27.337,56.421c0,12.853 -3.035,24.531 -9.112,35.048c-4.671,7.942 -10.865,15.066 -18.572,21.378c-3.041,2.565 -4.559,4.789 -4.559,6.654c0,1.87 1.288,3.623 3.859,5.259c12.148,6.777 21.725,15.948 28.737,27.513c7.006,11.565 10.512,24.819 10.512,39.773c0,28.737 -9.93,50.115 -29.789,64.133c-16.825,11.918 -39.25,17.872 -67.287,17.872l-71.492,0c-12.383,0 -21.613,-4.495 -27.689,-13.489c-6.072,-8.995 -9.107,-20.267 -9.107,-33.82l0,-208.871c0,-12.147 5.018,-21.96 15.066,-29.437c8.177,-6.076 16.824,-9.112 25.936,-9.112l65.533,0Z" style="fill:#e11;fill-rule:nonzero;"/>
  <path id="c" d="M1113.77,168.007c-0.689,-43.99 -31.928,-46.005 -55.561,-44.749c-23.627,1.256 -116.647,6.285 -120.163,142.039c-3.522,135.759 94.019,158.382 129.217,156.875c35.193,-1.508 54.299,-30.421 53.797,-51.537c-0.503,-21.115 -8.295,-38.212 -31.928,-38.966c-23.627,-0.753 -61.086,10.053 -63.101,-60.589c-2.01,-70.643 32.937,-64.609 54.053,-68.377c21.116,-3.773 34.188,-2.768 33.686,-34.696Z" style="fill:#ff000c;stroke:#000;stroke-width:1.28px;"/>
  <path id="f" d="M1949.89,179.254c0,-10.519 0.701,-18.35 2.103,-23.493c1.403,-5.143 3.507,-9.701 6.312,-13.675c4.675,-6.078 10.285,-10.753 16.831,-14.025c6.545,-3.273 13.441,-4.909 20.687,-4.909l77.842,0c9.818,0 17.064,1.279 21.739,3.838c4.675,2.558 9.351,7.212 14.026,13.962c1.402,2.327 2.629,5.351 3.681,9.073c1.052,3.722 1.578,7.444 1.578,11.165c0,7.214 -1.753,13.728 -5.259,19.543c-4.208,7.214 -8.649,11.809 -13.325,13.787c-4.675,1.978 -12.272,2.967 -22.791,2.967l-21.389,0c-7.246,0 -11.629,0.876 -13.149,2.63c-1.519,1.753 -2.279,6.253 -2.279,13.499c0,11.688 1.344,18.409 4.032,20.162c2.689,1.753 12.448,2.63 29.279,2.63c9.116,0 17.064,2.571 23.843,7.714c8.415,6.311 12.623,14.96 12.623,25.947c0,15.194 -4.091,26.064 -12.272,32.609c-5.844,4.675 -13.208,7.013 -22.09,7.013c-16.831,0 -26.766,0.701 -29.805,2.104c-3.039,1.402 -4.558,6.896 -4.558,16.48c0,7.246 -0.058,13.791 -0.175,19.635c-0.117,5.844 -0.176,10.87 -0.176,15.078l0,5.961c0.468,2.571 0.702,4.558 0.702,5.96c0,14.026 -4.792,25.129 -14.376,33.311c-8.65,7.247 -18.935,10.87 -30.857,10.87c-11.921,0 -21.739,-3.507 -29.453,-10.519c-5.844,-5.143 -9.526,-10.87 -11.045,-17.182c-1.52,-6.311 -2.279,-14.259 -2.279,-23.843l0,-188.292Z" style="fill-rule:nonzero;"/>
  <path id="g" d="M2384.26,120.347c11.455,0 22.091,2.103 31.908,6.311c9.818,4.208 18.584,9.584 26.298,16.129c6.078,5.377 11.162,11.688 15.253,18.935c4.091,7.246 6.136,14.844 6.136,22.791c0,4.442 -0.526,8.299 -1.578,11.571c-1.052,3.273 -3.039,7.013 -5.961,11.221c-2.922,4.207 -6.72,7.305 -11.395,9.292c-4.675,1.987 -9.468,2.98 -14.376,2.98c-3.507,0 -7.13,-0.409 -10.87,-1.227c-3.74,-0.818 -7.013,-2.046 -9.818,-3.682c-2.805,-1.636 -7.948,-6.194 -15.428,-13.675c-5.377,-5.61 -10.519,-8.415 -15.428,-8.415c-0.701,0 -2.221,0.234 -4.558,0.701c-7.948,1.87 -13.675,9.526 -17.182,22.967c-3.506,13.441 -5.259,29.98 -5.259,49.615c0,10.753 0.175,19.227 0.526,25.421c0.35,6.195 1.168,14.61 2.454,25.246c1.286,10.636 4.032,18.876 8.24,24.72c4.208,5.844 9.35,8.766 15.428,8.766c3.039,0 6.195,-0.938 9.467,-2.816c8.416,-4.69 12.623,-12.548 12.623,-23.575c0,-5.394 -1.168,-8.385 -3.506,-8.971c-2.338,-0.586 -4.909,-0.996 -7.714,-1.23c-6.312,-1.173 -11.571,-4.456 -15.779,-9.851c-4.909,-6.333 -7.363,-14.308 -7.363,-23.925c0,-7.977 3.097,-15.191 9.292,-21.641c6.194,-6.451 13.382,-9.676 21.564,-9.676l47.336,0c8.182,0 15.662,3.039 22.441,9.117c6.779,6.078 10.811,13.558 12.097,22.441c1.286,8.883 1.928,17.415 1.928,25.596c0,18.467 -2.454,35.765 -7.363,51.895c-4.909,16.129 -12.039,28.752 -21.389,37.868c-9.35,9.117 -19.928,15.838 -31.733,20.162c-11.804,4.325 -25.888,6.487 -42.251,6.487c-42.544,0 -73.05,-16.246 -91.517,-48.739c-14.025,-24.778 -21.038,-59.491 -21.038,-104.139c0,-42.778 9.233,-77.374 27.7,-103.789c21.039,-29.921 51.31,-44.881 90.815,-44.881Z" style="fill-rule:nonzero;"/>
  <path id="h" d="M2713.91,323.015l0,49.44c0,8.883 -0.467,15.545 -1.402,19.986c-0.935,4.442 -3.448,9 -7.539,13.675c-4.091,4.675 -9,8.123 -14.727,10.344c-5.727,2.221 -12.097,3.331 -19.11,3.331c-13.557,0 -24.194,-3.857 -31.908,-11.571c-4.441,-4.208 -7.538,-9.642 -9.291,-16.305c-1.754,-6.662 -2.63,-14.317 -2.63,-22.966l0,-191.448l0,-19.286c0.942,-11.22 5.537,-19.986 13.784,-26.297c3.773,-3.039 8.193,-5.26 13.259,-6.662c5.066,-1.403 10.073,-2.104 15.022,-2.104c9.665,0 18.091,2.104 25.279,6.311c7.188,4.208 12.314,10.519 15.379,18.935c2.356,6.779 3.534,15.661 3.534,26.648l0,40.323c0,4.909 1.461,8.942 4.383,12.097c2.922,3.156 7.071,4.734 12.447,4.734c6.779,0 11.221,-2.104 13.324,-6.311c1.403,-2.806 2.104,-7.481 2.104,-14.026l0,-35.414c0,-12.39 0.464,-20.805 1.392,-25.246c1.855,-8.416 6.028,-15.195 12.519,-20.337c3.711,-3.039 8.059,-5.26 13.045,-6.662c4.985,-1.403 10.029,-2.104 15.132,-2.104c9.273,0 17.562,2.108 24.865,6.325c7.303,4.217 12.346,10.191 15.129,17.924c2.784,7.732 4.175,17.106 4.175,28.122l0,202.794c0,6.326 -0.526,11.656 -1.578,15.99c-1.052,4.334 -3.448,8.668 -7.188,13.004c-3.74,4.335 -8.824,7.674 -15.253,10.017c-6.428,2.344 -13.148,3.515 -20.161,3.515c-13.324,0 -23.61,-3.645 -30.856,-10.935c-4.208,-4.237 -7.13,-9.707 -8.766,-16.409c-1.637,-6.702 -2.455,-14.758 -2.455,-24.167l0,-45.166c0,-10.819 -5.376,-16.228 -16.129,-16.228c-10.519,0 -15.779,5.376 -15.779,16.129Z" style="fill-rule:nonzero;"/>
  <path id="i" d="M3003.07,176.164l0,-11.237c0,-8.656 0.759,-15.443 2.279,-20.359c1.519,-4.916 5.084,-9.597 10.694,-14.042c4.208,-3.042 8.766,-5.324 13.675,-6.846c4.909,-1.521 10.169,-2.281 15.779,-2.281c9.116,0 17.298,2.048 24.544,6.144c7.247,4.096 12.39,10.472 15.428,19.129c2.338,6.79 3.507,15.917 3.507,27.382l0,197.294c0,10.53 -0.643,17.785 -1.929,21.764c-1.285,3.98 -3.74,8.076 -7.363,12.289c-3.623,4.213 -8.298,7.431 -14.026,9.654c-5.727,2.222 -12.097,3.334 -19.109,3.334c-13.091,0 -23.493,-3.861 -31.207,-11.582c-4.441,-4.449 -7.597,-10.008 -9.467,-16.678c-1.87,-6.669 -2.805,-14.1 -2.805,-22.293l0,-191.672Z" style="fill-rule:nonzero;"/>
  <path id="j" d="M3298.81,169.436c0,-11.221 0.76,-19.694 2.279,-25.421c1.52,-5.727 5.903,-11.279 13.149,-16.656c3.506,-2.805 7.48,-4.792 11.922,-5.96c4.441,-1.169 9.233,-1.754 14.376,-1.754c5.143,0 9.35,0.293 12.623,0.877c3.272,0.584 6.896,1.695 10.87,3.331c8.649,3.974 14.843,11.104 18.583,21.389c2.805,7.948 4.208,17.532 4.208,28.752l0,158.488c0,30.856 -10.052,54.349 -30.155,70.478c-15.428,12.39 -32.843,18.584 -52.245,18.584c-13.324,0 -24.661,-1.87 -34.012,-5.61c-13.791,-5.61 -22.791,-14.96 -26.999,-28.051c-0.467,-2.338 -0.818,-3.857 -1.052,-4.558c-0.233,-1.403 -0.35,-3.39 -0.35,-5.961c0,-4.675 0.643,-8.941 1.928,-12.798c1.286,-3.857 4.033,-8.357 8.24,-13.5c3.273,-3.974 6.429,-6.545 9.467,-7.714c3.039,-1.169 7.013,-1.753 11.922,-1.753l8.415,0c7.948,0 12.74,-0.935 14.377,-2.805c1.636,-1.87 2.454,-7.597 2.454,-17.181l0,-12.623l0,-139.554Z" style="fill-rule:nonzero;"/>
  <path id="k" d="M3626.28,318.457l0,62.063c0,10.285 -3.506,19.402 -10.519,27.349c-3.039,3.741 -7.714,6.663 -14.026,8.766c-6.311,2.104 -12.973,3.156 -19.986,3.156c-14.727,0 -25.713,-3.632 -32.96,-10.897c-4.441,-4.215 -7.422,-9.135 -8.941,-14.76c-1.52,-5.625 -2.279,-13.943 -2.279,-24.955l0,-191.898c0,-12.889 0.35,-21.208 1.052,-24.955c1.636,-8.434 5.61,-15.346 11.921,-20.737c3.74,-3.28 8.182,-5.681 13.325,-7.205c5.142,-1.523 10.636,-2.284 16.48,-2.284c8.415,0 15.778,1.285 22.09,3.857c14.726,6.078 22.09,17.532 22.09,34.362l0,59.258c0,3.74 0.234,6.779 0.701,9.117c0,0.935 0.117,1.402 0.351,1.402c0.935,-0.467 2.22,-3.156 3.857,-8.064l25.246,-68.024c3.74,-10.286 8.883,-18.175 15.428,-23.668c6.545,-5.494 12.973,-8.24 19.285,-8.24c13.792,0 23.142,0.584 28.051,1.753c9.584,2.338 15.895,7.48 18.934,15.428c1.169,3.273 1.753,6.779 1.753,10.519c0,5.377 -1.519,11.688 -4.558,18.935l-32.609,75.387c-0.701,1.636 -1.403,3.272 -2.104,4.909c-1.403,3.272 -2.104,6.194 -2.104,8.766c-0.234,1.168 -0.35,2.922 -0.35,5.259c0,2.338 0.116,4.091 0.35,5.26c0.234,1.168 0.935,3.039 2.104,5.61l35.765,86.607c3.039,7.247 5.026,12.506 5.961,15.779c0.935,3.273 1.402,6.545 1.402,9.818c0,3.74 -0.584,7.13 -1.753,10.168c-2.805,7.481 -7.422,12.974 -13.85,16.48c-6.428,3.507 -14.084,5.26 -22.967,5.26c-5.844,0 -11.804,-0.701 -17.882,-2.104c-16.13,-3.74 -26.882,-13.909 -32.259,-30.505l-22.441,-71.53c-0.467,-2.806 -1.052,-5.26 -1.753,-7.364c-0.701,-2.104 -1.402,-3.156 -2.104,-3.156c-0.701,0 -1.052,1.87 -1.052,5.611l0.351,9.467Z" style="fill-rule:nonzero;"/>
</svg>
